<svg version="1.1" id="Layer_1" xmlns="http://www.w3.org/2000/svg" xmlns:xlink="http://www.w3.org/1999/xlink" x="0px" y="0px"
	 width="100%" viewBox="0 0 1080 1080" enable-background="new 0 0 1080 1080" xml:space="preserve">
<path fill="#A31180" opacity="1.000000" stroke="none" 
	d="
M692.000000,1081.000000 
	C461.359894,1081.000000 231.219788,1081.000000 1.039840,1081.000000 
	C1.039840,721.068115 1.039840,361.136200 1.039840,1.102153 
	C360.890320,1.102153 720.780640,1.102153 1080.835449,1.102153 
	C1080.835449,360.999939 1080.835449,720.999939 1080.835449,1081.000000 
	C951.469055,1081.000000 821.984558,1081.000000 692.000000,1081.000000 
M892.045959,805.471680 
	C889.545288,803.267456 886.986938,801.125122 884.552734,798.849731 
	C856.358337,772.494019 831.451355,743.124146 806.997070,713.397095 
	C764.335876,661.537354 722.054199,609.365295 679.620361,557.318604 
	C671.742126,547.655518 663.896484,537.965881 655.826477,528.030701 
	C657.528198,526.039429 659.012878,524.283630 660.517151,522.544800 
	C672.619080,508.556000 684.938660,494.748932 696.791443,480.552155 
	C743.353638,424.781891 789.747314,368.870911 836.341431,313.127502 
	C837.776489,311.410645 840.663940,310.249481 842.982239,310.043427 
	C852.914551,309.160461 862.951538,309.239624 872.826233,307.988251 
	C881.651428,306.869843 889.953552,303.599304 896.636169,297.328125 
	C907.304688,287.316498 908.826904,274.648590 907.237915,260.963135 
	C906.765930,256.898041 905.544678,255.383148 901.135986,255.398987 
	C853.136719,255.571411 805.136047,255.383209 757.137390,255.627319 
	C748.541748,255.671051 739.811523,256.540375 731.395020,258.259888 
	C717.927490,261.011322 709.939209,273.938263 712.271179,287.916199 
	C730.068665,291.916687 747.954712,295.937073 766.768250,300.165955 
	C706.356995,384.987671 642.866028,465.950989 574.731689,543.676025 
	C575.692078,545.110779 576.653503,546.640625 577.705688,548.105286 
	C605.990723,587.479614 633.756409,627.241028 662.717163,666.112122 
	C695.857361,710.592834 729.664429,754.593445 763.982117,798.172424 
	C779.376831,817.721741 797.451843,834.994507 819.893921,846.641846 
	C847.678955,861.061951 876.504944,864.756653 906.114807,852.523438 
	C916.500427,848.232727 924.607544,840.995605 929.028870,831.175903 
	C916.582153,822.552307 904.587036,814.241638 892.045959,805.471680 
M482.832916,430.499908 
	C482.832916,545.467712 482.832916,660.435547 482.832916,775.693237 
	C471.185272,778.831238 459.769714,781.804382 448.415558,784.995972 
	C438.163574,787.877686 427.767273,790.434021 417.819977,794.162048 
	C406.500336,798.404602 401.542572,807.879883 402.917175,819.560120 
	C403.352814,823.262146 404.491943,824.939514 408.819550,824.756714 
	C427.462616,823.969177 446.127350,823.122620 464.779083,823.224854 
	C511.934052,823.483276 559.086182,824.253540 606.239746,824.787354 
	C613.995850,824.875122 621.573120,823.843689 628.373779,819.790955 
	C639.275269,813.294189 645.960083,804.010498 647.378052,790.714966 
	C618.746704,785.670837 590.603943,780.712769 562.431396,775.749451 
	C562.431396,616.999451 562.431396,458.748199 562.431396,300.059174 
	C569.402344,299.364685 576.177551,298.816559 582.918945,297.991760 
	C597.082825,296.258759 611.566711,296.661682 625.180115,291.255524 
	C639.855774,285.427521 646.862915,271.346558 642.384155,255.781204 
	C641.145386,255.694351 639.831116,255.521835 638.516846,255.521622 
	C580.024414,255.511520 521.532043,255.495987 463.039612,255.537567 
	C451.662415,255.545654 440.425537,256.558197 429.704559,260.877777 
	C417.834686,265.660217 411.544891,275.114075 411.770477,287.539124 
	C411.834290,291.054047 412.934998,292.525391 416.545410,292.842621 
	C426.666382,293.731964 436.759369,294.943542 446.860321,296.055817 
	C458.729309,297.362793 470.595093,298.698883 482.832916,300.063690 
	C482.832916,343.566742 482.832916,386.533295 482.832916,430.499908 
M152.463303,547.011719 
	C161.284836,555.789612 171.117538,563.777100 178.722153,573.506165 
	C195.720795,595.253662 204.099106,620.483948 205.060822,648.129456 
	C205.154510,650.822144 204.576691,654.679749 208.680328,654.542786 
	C212.777664,654.406128 211.662872,650.496094 211.961548,647.863831 
	C212.823776,640.264709 212.947433,632.511414 214.561203,625.079163 
	C227.486877,565.550110 277.179230,523.729126 337.919708,520.903748 
	C339.743256,520.818909 341.708466,520.910156 343.324677,520.238464 
	C344.416595,519.784607 345.527283,518.186890 345.648865,517.000305 
	C345.731628,516.192871 344.256409,514.688049 343.234070,514.418091 
	C341.176086,513.874573 338.954620,513.899841 336.795532,513.797363 
	C307.478943,512.405334 281.353027,502.416656 259.073273,483.450531 
	C229.096420,457.932190 213.043320,425.381836 211.799423,385.751709 
	C211.738586,383.813660 209.677521,381.938385 208.547882,380.033875 
	C207.388504,381.934998 205.510147,383.725250 205.196869,385.756836 
	C203.981003,393.641968 203.921432,401.745148 202.254639,409.514679 
	C189.470886,469.104340 140.037354,510.815704 79.099319,513.908447 
	C76.164696,514.057434 71.200432,512.504456 71.323410,517.519043 
	C71.430725,521.895203 76.099007,520.712463 79.009636,520.867065 
	C105.842979,522.292297 130.280136,530.417725 152.463303,547.011719 
M308.125580,634.171143 
	C326.856720,636.208679 343.133423,643.649475 356.339661,657.076660 
	C371.032196,672.014832 379.201050,689.989136 380.110840,711.138000 
	C380.191528,713.013000 382.022430,714.812744 383.040436,716.647400 
	C384.288391,714.823730 385.571136,713.022217 386.754669,711.157654 
	C386.988495,710.789307 386.839630,710.178650 386.868988,709.679810 
	C389.147064,671.019043 416.839111,640.543579 455.029205,634.744080 
	C458.643372,634.195251 462.369904,634.276794 465.927216,633.517273 
	C467.339874,633.215637 468.433594,631.420288 469.672516,630.304993 
	C468.376770,629.245789 467.227631,627.804871 465.743927,627.234985 
	C464.269165,626.668579 462.457825,626.982117 460.794464,626.902405 
	C425.692047,625.219543 392.673187,595.155457 387.799652,560.367737 
	C387.223206,556.252930 387.250305,552.041870 386.485901,547.971558 
	C386.224457,546.579407 384.394867,545.481750 383.281708,544.249512 
	C382.204285,545.487427 380.995789,546.640198 380.109711,548.002625 
	C379.720001,548.601746 380.015747,549.630066 379.950806,550.459595 
	C377.293274,584.392334 360.168457,608.243958 328.966187,621.304810 
	C320.582214,624.814270 310.869934,625.097229 301.830292,627.139648 
	C300.084198,627.534119 298.631104,629.225464 297.042847,630.318604 
	C298.611206,631.463135 300.038208,632.981750 301.789093,633.643250 
	C303.425568,634.261658 305.405609,633.970764 308.125580,634.171143 
M336.145081,397.718384 
	C345.857147,385.453247 358.360779,378.431061 374.074402,377.084259 
	C375.937408,376.924591 377.654053,375.057098 379.438568,373.981293 
	C377.654297,372.910675 375.879120,371.824188 374.075500,370.787231 
	C373.816650,370.638367 373.419800,370.735138 373.087769,370.707092 
	C347.879181,368.579620 328.815155,349.452454 326.812561,324.292999 
	C326.720306,323.134399 326.863403,321.767944 326.295898,320.884247 
	C325.587860,319.781647 324.236969,318.375824 323.198273,318.403503 
	C322.164093,318.431030 320.898193,319.914703 320.249359,321.053558 
	C319.726074,321.971985 319.977722,323.328491 319.873322,324.489532 
	C317.605835,349.703461 299.147095,368.242249 273.886810,370.674225 
	C273.057556,370.754089 272.083282,370.551605 271.423920,370.921539 
	C269.974365,371.734711 268.683380,372.830475 267.327698,373.810883 
	C268.731842,374.915619 270.087341,376.093018 271.567657,377.083923 
	C272.056061,377.410889 272.867584,377.249695 273.530121,377.322815 
	C300.076050,380.252747 317.566132,398.143372 320.076874,424.622009 
	C320.246307,426.408722 322.243073,428.022186 323.389923,429.716248 
	C324.514862,427.954132 326.499237,426.249176 326.620850,424.420349 
	C327.259216,414.821655 330.425995,406.218903 336.145081,397.718384 
z"/>
<path fill="#F7C0E8" opacity="1.000000" stroke="none" 
	d="
M892.318909,805.701294 
	C904.587036,814.241638 916.582153,822.552307 929.028870,831.175903 
	C924.607544,840.995605 916.500427,848.232727 906.114807,852.523438 
	C876.504944,864.756653 847.678955,861.061951 819.893921,846.641846 
	C797.451843,834.994507 779.376831,817.721741 763.982117,798.172424 
	C729.664429,754.593445 695.857361,710.592834 662.717163,666.112122 
	C633.756409,627.241028 605.990723,587.479614 577.705688,548.105286 
	C576.653503,546.640625 575.692078,545.110779 574.731689,543.676025 
	C642.866028,465.950989 706.356995,384.987671 766.768250,300.165955 
	C747.954712,295.937073 730.068665,291.916687 712.271179,287.916199 
	C709.939209,273.938263 717.927490,261.011322 731.395020,258.259888 
	C739.811523,256.540375 748.541748,255.671051 757.137390,255.627319 
	C805.136047,255.383209 853.136719,255.571411 901.135986,255.398987 
	C905.544678,255.383148 906.765930,256.898041 907.237915,260.963135 
	C908.826904,274.648590 907.304688,287.316498 896.636169,297.328125 
	C889.953552,303.599304 881.651428,306.869843 872.826233,307.988251 
	C862.951538,309.239624 852.914551,309.160461 842.982239,310.043427 
	C840.663940,310.249481 837.776489,311.410645 836.341431,313.127502 
	C789.747314,368.870911 743.353638,424.781891 696.791443,480.552155 
	C684.938660,494.748932 672.619080,508.556000 660.517151,522.544800 
	C659.012878,524.283630 657.528198,526.039429 655.826477,528.030701 
	C663.896484,537.965881 671.742126,547.655518 679.620361,557.318604 
	C722.054199,609.365295 764.335876,661.537354 806.997070,713.397095 
	C831.451355,743.124146 856.358337,772.494019 884.552734,798.849731 
	C886.986938,801.125122 889.545288,803.267456 892.318909,805.701294 
z"/>
<path fill="#F7C1E8" opacity="1.000000" stroke="none" 
	d="
M482.832916,429.999878 
	C482.832916,386.533295 482.832916,343.566742 482.832916,300.063690 
	C470.595093,298.698883 458.729309,297.362793 446.860321,296.055817 
	C436.759369,294.943542 426.666382,293.731964 416.545410,292.842621 
	C412.934998,292.525391 411.834290,291.054047 411.770477,287.539124 
	C411.544891,275.114075 417.834686,265.660217 429.704559,260.877777 
	C440.425537,256.558197 451.662415,255.545654 463.039612,255.537567 
	C521.532043,255.495987 580.024414,255.511520 638.516846,255.521622 
	C639.831116,255.521835 641.145386,255.694351 642.384155,255.781204 
	C646.862915,271.346558 639.855774,285.427521 625.180115,291.255524 
	C611.566711,296.661682 597.082825,296.258759 582.918945,297.991760 
	C576.177551,298.816559 569.402344,299.364685 562.431396,300.059174 
	C562.431396,458.748199 562.431396,616.999451 562.431396,775.749451 
	C590.603943,780.712769 618.746704,785.670837 647.378052,790.714966 
	C645.960083,804.010498 639.275269,813.294189 628.373779,819.790955 
	C621.573120,823.843689 613.995850,824.875122 606.239746,824.787354 
	C559.086182,824.253540 511.934052,823.483276 464.779083,823.224854 
	C446.127350,823.122620 427.462616,823.969177 408.819550,824.756714 
	C404.491943,824.939514 403.352814,823.262146 402.917175,819.560120 
	C401.542572,807.879883 406.500336,798.404602 417.819977,794.162048 
	C427.767273,790.434021 438.163574,787.877686 448.415558,784.995972 
	C459.769714,781.804382 471.185272,778.831238 482.832916,775.693237 
	C482.832916,660.435547 482.832916,545.467712 482.832916,429.999878 
z"/>
<path fill="#C970B2" opacity="1.000000" stroke="none" 
	d="
M152.183105,546.792236 
	C130.280136,530.417725 105.842979,522.292297 79.009636,520.867065 
	C76.099007,520.712463 71.430725,521.895203 71.323410,517.519043 
	C71.200432,512.504456 76.164696,514.057434 79.099319,513.908447 
	C140.037354,510.815704 189.470886,469.104340 202.254639,409.514679 
	C203.921432,401.745148 203.981003,393.641968 205.196869,385.756836 
	C205.510147,383.725250 207.388504,381.934998 208.547882,380.033875 
	C209.677521,381.938385 211.738586,383.813660 211.799423,385.751709 
	C213.043320,425.381836 229.096420,457.932190 259.073273,483.450531 
	C281.353027,502.416656 307.478943,512.405334 336.795532,513.797363 
	C338.954620,513.899841 341.176086,513.874573 343.234070,514.418091 
	C344.256409,514.688049 345.731628,516.192871 345.648865,517.000305 
	C345.527283,518.186890 344.416595,519.784607 343.324677,520.238464 
	C341.708466,520.910156 339.743256,520.818909 337.919708,520.903748 
	C277.179230,523.729126 227.486877,565.550110 214.561203,625.079163 
	C212.947433,632.511414 212.823776,640.264709 211.961548,647.863831 
	C211.662872,650.496094 212.777664,654.406128 208.680328,654.542786 
	C204.576691,654.679749 205.154510,650.822144 205.060822,648.129456 
	C204.099106,620.483948 195.720795,595.253662 178.722153,573.506165 
	C171.117538,563.777100 161.284836,555.789612 152.183105,546.792236 
z"/>
<path fill="#C870B1" opacity="1.000000" stroke="none" 
	d="
M307.680023,634.125610 
	C305.405609,633.970764 303.425568,634.261658 301.789093,633.643250 
	C300.038208,632.981750 298.611206,631.463135 297.042847,630.318604 
	C298.631104,629.225464 300.084198,627.534119 301.830292,627.139648 
	C310.869934,625.097229 320.582214,624.814270 328.966187,621.304810 
	C360.168457,608.243958 377.293274,584.392334 379.950806,550.459595 
	C380.015747,549.630066 379.720001,548.601746 380.109711,548.002625 
	C380.995789,546.640198 382.204285,545.487427 383.281738,544.249512 
	C384.394867,545.481750 386.224457,546.579407 386.485901,547.971558 
	C387.250305,552.041870 387.223206,556.252930 387.799652,560.367737 
	C392.673187,595.155457 425.692047,625.219543 460.794464,626.902405 
	C462.457825,626.982117 464.269165,626.668579 465.743927,627.234985 
	C467.227631,627.804871 468.376770,629.245789 469.672516,630.304993 
	C468.433594,631.420288 467.339874,633.215637 465.927216,633.517273 
	C462.369904,634.276794 458.643372,634.195251 455.029205,634.744080 
	C416.839111,640.543579 389.147064,671.019043 386.868988,709.679810 
	C386.839630,710.178650 386.988495,710.789307 386.754669,711.157654 
	C385.571136,713.022217 384.288391,714.823730 383.040436,716.647400 
	C382.022430,714.812744 380.191528,713.013000 380.110840,711.138000 
	C379.201050,689.989136 371.032196,672.014832 356.339661,657.076660 
	C343.133423,643.649475 326.856720,636.208679 307.680023,634.125610 
z"/>
<path fill="#C86FB1" opacity="1.000000" stroke="none" 
	d="
M335.929565,398.007874 
	C330.425995,406.218903 327.259216,414.821655 326.620850,424.420349 
	C326.499237,426.249176 324.514862,427.954132 323.389923,429.716248 
	C322.243073,428.022186 320.246307,426.408722 320.076874,424.622009 
	C317.566132,398.143372 300.076050,380.252747 273.530121,377.322815 
	C272.867584,377.249695 272.056061,377.410889 271.567657,377.083923 
	C270.087341,376.093018 268.731842,374.915619 267.327698,373.810883 
	C268.683380,372.830475 269.974365,371.734711 271.423920,370.921539 
	C272.083282,370.551605 273.057556,370.754089 273.886810,370.674225 
	C299.147095,368.242249 317.605835,349.703461 319.873322,324.489532 
	C319.977722,323.328491 319.726074,321.971985 320.249359,321.053558 
	C320.898193,319.914703 322.164093,318.431030 323.198273,318.403503 
	C324.236969,318.375824 325.587860,319.781647 326.295898,320.884247 
	C326.863403,321.767944 326.720306,323.134399 326.812561,324.292999 
	C328.815155,349.452454 347.879181,368.579620 373.087769,370.707092 
	C373.419800,370.735138 373.816650,370.638367 374.075500,370.787231 
	C375.879120,371.824188 377.654297,372.910675 379.438568,373.981293 
	C377.654053,375.057098 375.937408,376.924591 374.074402,377.084259 
	C358.360779,378.431061 345.857147,385.453247 335.929565,398.007874 
z"/>
</svg>